<?xml version="1.0" encoding="iso-8859-1"?>
<!-- Uploaded to: SVG Repo, www.svgrepo.com, Generator: SVG Repo Mixer Tools -->
<svg height="800px" width="800px" version="1.1" id="Layer_1" xmlns="http://www.w3.org/2000/svg" xmlns:xlink="http://www.w3.org/1999/xlink" 
	 viewBox="0 0 512.002 512.002" xml:space="preserve">
<g>
	<path style="fill:#3EAC92;" d="M214.336,375.599c0,0-13.106,28.236-38.866,38.154s-54.418-2.236-54.418-2.236
		s13.106-28.236,38.866-38.154C185.677,363.444,214.336,375.599,214.336,375.599z"/>
	<path style="fill:#3EAC92;" d="M385.424,329.743c0,0-24.072,19.738-51.582,17.481c-27.511-2.258-48.042-25.656-48.042-25.656
		s24.072-19.738,51.582-17.481C364.893,306.345,385.424,329.743,385.424,329.743z"/>
</g>
<path style="fill:#EAC9F1;" d="M261.796,210.794c0-8.796-25.713-15.926-57.431-15.926c-10.548,0-20.425,1.765-28.921,4.117
	c7.669-4.344,15.902-10.079,23.36-17.539c22.428-22.428,35.567-45.652,29.349-51.871c-6.22-6.22-29.443,6.92-51.871,29.349
	c-7.459,7.459-13.195,15.691-17.539,23.36c2.352-8.496,4.117-18.371,4.117-28.921c0-31.719-7.13-57.431-15.926-57.431
	c-8.796,0-15.926,25.712-15.926,57.431c0,10.548,1.765,20.425,4.117,28.92c-4.344-7.669-10.079-15.902-17.539-23.36
	c-22.428-22.429-45.652-35.568-51.871-29.349c-6.22,6.22,6.92,29.443,29.349,51.871c7.459,7.459,15.691,13.194,23.36,17.539
	c-8.496-2.352-18.371-4.117-28.921-4.117c-31.718,0-57.431,7.13-57.431,15.926c0,8.796,25.713,15.926,57.431,15.926
	c10.548,0,20.425-1.765,28.92-4.117c-7.669,4.344-15.901,10.079-23.36,17.539c-22.428,22.429-35.567,45.652-29.349,51.871
	c6.22,6.22,29.443-6.92,51.871-29.348c7.459-7.459,13.194-15.691,17.539-23.36c-2.352,8.496-4.117,18.371-4.117,28.921
	c0,31.718,7.131,57.431,15.926,57.431s15.926-25.713,15.926-57.431c0-10.549-1.765-20.425-4.117-28.921
	c4.344,7.669,10.079,15.902,17.539,23.36c22.428,22.428,45.652,35.567,51.871,29.348c6.22-6.22-6.92-29.443-29.349-51.871
	c-7.459-7.458-15.691-13.194-23.36-17.539c8.496,2.352,18.371,4.117,28.92,4.117C236.083,226.72,261.796,219.59,261.796,210.794z"/>
<circle style="fill:#C141C8;" cx="146.938" cy="210.795" r="26.609"/>
<path style="fill:#EAC9F1;" d="M479.929,122.541c0-8.796-25.713-15.926-57.431-15.926c-10.548,0-20.425,1.765-28.921,4.117
	c7.669-4.344,15.902-10.079,23.36-17.539c22.428-22.428,35.567-45.652,29.349-51.871c-6.22-6.22-29.443,6.92-51.871,29.349
	c-7.46,7.459-13.195,15.691-17.539,23.36c2.352-8.496,4.117-18.371,4.117-28.921c0-31.719-7.13-57.431-15.926-57.431
	c-8.796,0-15.926,25.712-15.926,57.431c0,10.548,1.765,20.425,4.117,28.92c-4.344-7.669-10.079-15.902-17.539-23.36
	C313.29,48.24,290.066,35.1,283.847,41.32s6.92,29.443,29.349,51.871c7.46,7.459,15.691,13.194,23.36,17.539
	c-8.496-2.352-18.371-4.117-28.921-4.117c-31.718,0-57.431,7.13-57.431,15.926c0,8.796,25.713,15.926,57.431,15.926
	c10.548,0,20.425-1.765,28.92-4.117c-7.669,4.344-15.901,10.079-23.36,17.539c-22.428,22.429-35.567,45.652-29.349,51.871
	c6.22,6.22,29.443-6.92,51.871-29.348c7.46-7.459,13.194-15.691,17.539-23.36c-2.352,8.496-4.117,18.371-4.117,28.921
	c0,31.718,7.131,57.431,15.926,57.431s15.926-25.713,15.926-57.431c0-10.549-1.765-20.425-4.117-28.921
	c4.344,7.669,10.079,15.902,17.539,23.36c22.428,22.428,45.652,35.567,51.871,29.348s-6.92-29.443-29.349-51.871
	c-7.46-7.458-15.691-13.194-23.36-17.539c8.496,2.352,18.371,4.117,28.92,4.117C454.216,138.467,479.929,131.337,479.929,122.541z"
	/>
<circle style="fill:#C141C8;" cx="365.072" cy="122.542" r="26.609"/>
<path d="M191.57,286.098c14.422,10.866,32.558,20.796,42.014,11.344c16.222-16.223-24.636-58.017-29.349-62.73
	c-0.105-0.105-0.21-0.209-0.315-0.314c0.148,0.001,0.297,0.001,0.445,0.001c6.664,0,65.109-0.661,65.109-23.605
	s-58.445-23.605-65.109-23.605c-0.149,0-0.298,0-0.446,0.001c0.106-0.105,0.211-0.21,0.316-0.315
	c11.323-11.324,20.796-23.278,26.67-33.663c7.612-13.453,8.513-23.232,2.678-29.067c-5.835-5.837-15.614-4.934-29.069,2.676
	c-10.383,5.875-22.339,15.347-33.662,26.671c-0.105,0.105-0.21,0.21-0.314,0.316c0-0.149,0.001-0.297,0.001-0.446
	c0-6.665-0.662-65.11-23.605-65.11s-23.605,58.445-23.605,65.11c0,0.149,0,0.297,0.001,0.446c-0.104-0.106-0.21-0.212-0.315-0.317
	c-11.324-11.323-23.278-20.796-33.662-26.67c-13.454-7.612-23.232-8.513-29.067-2.677c-5.836,5.835-4.935,15.614,2.677,29.068
	c5.875,10.385,15.347,22.339,26.67,33.662c0.105,0.106,0.211,0.211,0.317,0.316c-0.149-0.001-0.298-0.001-0.447-0.001
	c-6.664,0-65.109,0.661-65.109,23.605s58.444,23.605,65.109,23.605c0.148,0,0.298,0,0.446-0.001
	c-0.105,0.105-0.211,0.209-0.315,0.314c-11.324,11.324-20.796,23.278-26.67,33.663c-7.612,13.454-8.512,23.232-2.677,29.069
	c2.663,2.663,6.011,3.787,9.774,3.786c19.166-0.003,49.017-29.197,52.956-33.135c0.105-0.105,0.211-0.211,0.315-0.317
	c0,0.149-0.001,0.298-0.001,0.447c0,6.664,0.662,65.109,23.605,65.109c18.566,0,22.541-38.272,23.382-56.405
	c10.113,20.96,22.753,50.905,33.216,87.352c-11.798-2.701-29.479-4.589-46.373,1.917c-28.332,10.909-42.483,40.818-43.071,42.087
	c-0.876,1.887-0.949,4.049-0.201,5.992c0.747,1.941,2.251,3.497,4.168,4.309c0.902,0.383,16.204,6.744,35.039,6.744
	c8.017,0,16.676-1.153,25.136-4.411c14.965-5.762,25.97-16.824,33.113-26.169c7.438,32.976,12.508,69.97,12.508,109.572
	c0,4.242,3.438,7.679,7.679,7.679c4.241,0,7.679-3.437,7.679-7.679c0-79.724-20.07-148.571-36.905-192.288
	C198.671,302.607,195.05,293.95,191.57,286.098z M221.836,285.697c-6.173-1.382-21.461-9.798-40.124-28.462
	c-4.657-4.657-8.949-10.02-12.813-15.99c-0.635-1.085-1.196-2.028-1.68-2.831c2.822-2.077,5.313-4.576,7.384-7.403
	c7.096,4.302,13.402,9.19,18.773,14.561C212.041,264.237,220.457,279.524,221.836,285.697z M128.004,210.795
	c0-10.438,8.492-18.93,18.93-18.93s18.93,8.493,18.93,18.93c0,10.438-8.492,18.929-18.93,18.929S128.004,221.232,128.004,210.795z
	 M204.365,202.547c26.396,0,43.158,4.859,48.498,8.248c-5.34,3.389-22.102,8.248-48.498,8.248c-7.587,0-15.494-1.001-23.55-2.974
	c0.266-1.719,0.406-3.48,0.406-5.273c0-1.793-0.139-3.554-0.406-5.274C188.872,203.548,196.779,202.547,204.365,202.547z
	 M181.712,164.352c18.664-18.664,33.953-27.081,40.124-28.461c-1.38,6.172-9.797,21.46-28.461,40.124
	c-5.37,5.37-11.675,10.257-18.773,14.56c-2.088-2.849-4.602-5.364-7.451-7.451C171.455,176.028,176.342,169.723,181.712,164.352z
	 M146.934,104.866c3.389,5.34,8.248,22.102,8.248,48.498c0,7.586-1,15.493-2.974,23.549c-1.72-0.266-3.481-0.406-5.274-0.406
	c-1.794,0-3.555,0.139-5.274,0.406c-1.973-8.054-2.973-15.961-2.973-23.549C138.687,126.968,143.547,110.206,146.934,104.866z
	 M72.032,135.892c6.172,1.38,21.46,9.796,40.124,28.46c5.37,5.37,10.257,11.676,14.561,18.774c-2.849,2.088-5.364,4.602-7.451,7.451
	c-7.098-4.303-13.403-9.191-18.773-14.561C81.829,157.352,73.412,142.064,72.032,135.892z M89.504,219.041
	c-26.395,0-43.157-4.859-48.497-8.248c5.339-3.389,22.101-8.248,48.497-8.248c7.59,0,15.496,1.001,23.55,2.973
	c-0.266,1.72-0.406,3.481-0.406,5.274c0,1.793,0.139,3.554,0.406,5.273C104.998,218.041,97.091,219.041,89.504,219.041z
	 M112.157,257.235c-18.664,18.664-33.953,27.081-40.124,28.462c1.38-6.172,9.796-21.461,28.461-40.124
	c5.369-5.37,11.675-10.257,18.773-14.561c2.088,2.849,4.602,5.364,7.451,7.451C122.414,245.56,117.526,251.865,112.157,257.235z
	 M146.934,316.722c-3.389-5.34-8.248-22.102-8.248-48.497c0-7.589,1-15.495,2.973-23.55c1.72,0.266,3.481,0.406,5.274,0.406
	c1.793,0,3.554-0.139,5.274-0.406c1.973,8.056,2.974,15.963,2.974,23.55C155.182,294.62,150.323,311.382,146.934,316.722z
	 M172.711,406.587c-14.649,5.639-30.792,3.051-40.313,0.545c5.354-8.233,15.554-20.934,30.278-26.604
	c14.647-5.638,30.787-3.052,40.313-0.544C197.636,388.218,187.436,400.917,172.711,406.587z"/>
<path d="M487.608,122.541c0-22.942-58.444-23.605-65.109-23.605c-0.149,0-0.298,0-0.446,0.001c0.106-0.105,0.211-0.21,0.316-0.315
	c11.323-11.324,20.796-23.278,26.67-33.663c7.612-13.453,8.513-23.232,2.678-29.067c-5.835-5.836-15.614-4.935-29.069,2.676
	c-10.383,5.875-22.339,15.347-33.662,26.671c-0.105,0.105-0.211,0.211-0.315,0.316c0-0.148,0.001-0.297,0.001-0.446
	c0-6.664-0.662-65.109-23.604-65.109c-22.943,0-23.605,58.445-23.605,65.109c0,0.149,0,0.297,0.001,0.446
	c-0.104-0.106-0.21-0.212-0.315-0.317c-4.713-4.714-46.509-45.573-62.73-29.348c-5.835,5.835-4.934,15.615,2.678,29.068
	c5.875,10.385,15.347,22.339,26.67,33.662c0.105,0.106,0.211,0.211,0.317,0.316c-0.149-0.001-0.298-0.001-0.447-0.001
	c-6.664,0-65.109,0.662-65.109,23.605s58.444,23.605,65.109,23.605c0.148,0,0.298,0,0.446-0.001
	c-0.105,0.105-0.211,0.209-0.315,0.315c-11.324,11.324-20.796,23.278-26.67,33.662c-7.612,13.454-8.513,23.233-2.678,29.069
	c2.663,2.663,6.012,3.787,9.774,3.786c11.144-0.001,25.894-9.871,37.069-18.908c-8.613,19.174-18.938,43.588-29.201,71.275
	c-23.034,62.141-50.489,154.046-50.489,238.979c0,4.242,3.438,7.679,7.679,7.679c4.241,0,7.679-3.437,7.679-7.679
	c0-56.873,12.754-117.229,28.064-169.193c9.293,7.741,25.107,18.177,44.221,19.745c1.705,0.14,3.39,0.206,5.062,0.206
	c28.013,0,50.997-18.565,52.017-19.4c1.609-1.32,2.614-3.235,2.785-5.311c0.17-2.073-0.509-4.128-1.881-5.692
	c-0.922-1.05-22.928-25.762-53.186-28.245c-15.144-1.247-29.155,3.339-39.51,8.344c3.983-12.026,7.996-23.393,11.881-33.882
	c11.282-30.46,22.635-56.887,31.635-76.605c1.389,19.393,6.235,50.789,23.051,50.789c22.942,0,23.604-58.445,23.604-65.109
	c0-0.149,0-0.298-0.001-0.446c0.105,0.106,0.21,0.211,0.315,0.317c11.323,11.323,23.278,20.796,33.662,26.67
	c13.453,7.611,23.232,8.512,29.068,2.677c5.835-5.835,4.934-15.615-2.677-29.069c-5.876-10.383-15.347-22.338-26.67-33.663
	c-0.105-0.105-0.21-0.209-0.315-0.314c0.148,0.001,0.297,0.001,0.445,0.001C429.162,146.146,487.608,145.484,487.608,122.541z
	 M336.754,311.739c15.641,1.284,29.056,10.625,36.545,17.024c-8.399,5.09-23.105,12.09-38.83,10.807
	c-15.629-1.283-29.037-10.612-36.527-17.007C306.379,317.474,321.129,310.462,336.754,311.739z M399.846,76.1
	c18.664-18.664,33.953-27.081,40.124-28.461c-1.38,6.172-9.797,21.46-28.461,40.124c-5.369,5.37-11.673,10.257-18.773,14.56
	c-2.088-2.849-4.602-5.364-7.451-7.451C389.588,87.775,394.476,81.47,399.846,76.1z M365.068,141.471
	c-10.438,0-18.93-8.492-18.93-18.929s8.491-18.93,18.93-18.93c10.439,0,18.93,8.493,18.93,18.93S375.505,141.471,365.068,141.471z
	 M365.068,16.614c3.389,5.34,8.247,22.102,8.247,48.497c0,7.587-1,15.494-2.973,23.549c-1.72-0.266-3.481-0.406-5.274-0.406
	c-1.794,0-3.555,0.139-5.274,0.406c-1.973-8.055-2.973-15.961-2.973-23.549C356.821,38.715,361.68,21.954,365.068,16.614z
	 M290.166,47.639c6.172,1.38,21.46,9.796,40.124,28.46c5.371,5.371,10.258,11.677,14.56,18.774
	c-2.849,2.088-5.364,4.602-7.451,7.451c-7.098-4.303-13.403-9.191-18.773-14.561C299.962,69.099,291.546,53.812,290.166,47.639z
	 M307.637,130.789c-26.395,0-43.157-4.859-48.497-8.248c5.339-3.389,22.101-8.248,48.497-8.248c7.59,0,15.496,1.001,23.55,2.973
	c-0.266,1.72-0.406,3.481-0.406,5.274s0.14,3.554,0.406,5.274C323.13,129.788,315.223,130.789,307.637,130.789z M318.627,157.319
	c5.37-5.371,11.676-10.258,18.774-14.56c2.088,2.848,4.602,5.364,7.45,7.45c-4.302,7.097-9.19,13.403-14.56,18.774
	c-18.666,18.666-33.955,27.082-40.125,28.461C291.546,191.272,299.962,175.984,318.627,157.319z M365.068,228.469
	c-3.389-5.34-8.248-22.102-8.248-48.497c0-7.001,0.865-14.276,2.546-21.686c0.431-0.832,0.669-1.283,0.691-1.327
	c0.082-0.156,0.149-0.314,0.22-0.473c1.566,0.22,3.164,0.342,4.789,0.342c1.793,0,3.554-0.139,5.274-0.406
	c1.973,8.054,2.973,15.961,2.973,23.55C373.315,206.367,368.456,223.13,365.068,228.469z M439.97,197.444
	c-6.172-1.38-21.46-9.796-40.124-28.46c-5.371-5.371-10.259-11.677-14.561-18.774c2.849-2.088,5.364-4.602,7.451-7.45
	c7.098,4.303,13.403,9.191,18.773,14.559C430.173,175.984,438.59,191.272,439.97,197.444z M398.949,127.816
	c0.266-1.72,0.406-3.481,0.406-5.274s-0.139-3.554-0.406-5.274c8.056-1.973,15.963-2.974,23.55-2.974
	c26.395,0,43.157,4.859,48.497,8.248c-5.339,3.389-22.101,8.248-48.497,8.248C414.912,130.789,407.005,129.789,398.949,127.816z"/>
</svg>